<svg xmlns="http://www.w3.org/2000/svg" xmlns:xlink="http://www.w3.org/1999/xlink" version="1.1" width="22" height="27.5" style=""><rect id="backgroundrect" width="100%" height="100%" x="0" y="0" fill="none" stroke="none"/><title>cat_1</title><desc>Created with Sketch.</desc><g class="currentLayer" style=""><title>Layer 1</title><g stroke="none" stroke-width="1" fill="#e76767" fill-rule="evenodd" id="svg_1" class="selected" fill-opacity="1"><g fill="#e76767" id="svg_2" fill-opacity="1"><path d="M0,1.9996150000000004 C0,0.8952580999999995 0.8874332900000006,0 1.9996150000000004,0 L8.000385000000001,0 C9.1047419,0 10,0.8874332999999996 10,1.9996150000000004 L10,8.000385000000001 C10,9.1047419 9.112566699999999,10 8.000385000000001,10 L1.9996150000000004,10 C0.8952581199999994,10 0,9.112566699999999 0,8.000385000000001 L0,1.9996150000000004 zM0,13.999614999999999 C0,12.8952581 0.8874332900000006,12 1.9996150000000004,12 L8.000385000000001,12 C9.1047419,12 10,12.887433300000001 10,13.999614999999999 L10,20.000385 C10,21.1047419 9.112566699999999,22 8.000385000000001,22 L1.9996150000000004,22 C0.8952581199999994,22 0,21.1125667 0,20.000385 L0,13.999614999999999 zM12,13.999614999999999 C12,12.8952581 12.887433300000001,12 13.999614999999999,12 L20.000385,12 C21.1047419,12 22,12.887433300000001 22,13.999614999999999 L22,20.000385 C22,21.1047419 21.1125667,22 20.000385,22 L13.999614999999999,22 C12.8952581,22 12,21.1125667 12,20.000385 L12,13.999614999999999 zM12,1.9996150000000004 C12,0.8952580999999995 12.887433300000001,0 13.999614999999999,0 L20.000385,0 C21.1047419,0 22,0.8874332999999996 22,1.9996150000000004 L22,8.000385000000001 C22,9.1047419 21.1125667,10 20.000385,10 L13.999614999999999,10 C12.8952581,10 12,9.112566699999999 12,8.000385000000001 L12,1.9996150000000004 z" id="svg_3" fill="#e76767" fill-opacity="1"/></g></g><text x="0" y="37" fill="#000000" font-size="5px" font-weight="bold" font-family="'Helvetica Neue', Helvetica, Arial-Unicode, Arial, Sans-serif" id="svg_4">Created by Philip Belov</text><text x="0" y="42" fill="#000000" font-size="5px" font-weight="bold" font-family="'Helvetica Neue', Helvetica, Arial-Unicode, Arial, Sans-serif" id="svg_5">from the Noun Project</text></g></svg>